<?xml version="1.0" encoding="UTF-8" standalone="no"?>
<!DOCTYPE svg PUBLIC "-//W3C//DTD SVG 1.1//EN"
 "http://www.w3.org/Graphics/SVG/1.1/DTD/svg11.dtd">
<!-- Generated by graphviz version 2.28.0 (20121018.1659)
 -->
<!-- Title: YielbotStack Pages: 1 -->
<svg width="591pt" height="788pt"
 viewBox="0.00 0.00 591.00 788.00" xmlns="http://www.w3.org/2000/svg" xmlns:xlink="http://www.w3.org/1999/xlink">
<g id="graph1" class="graph" transform="scale(1 1) rotate(0) translate(4 784)">
<title>YielbotStack</title>
<polygon fill="white" stroke="white" points="-4,5 -4,-784 588,-784 588,5 -4,5"/>
<!-- require -->
<g id="node1" class="node"><title>require</title>
<ellipse fill="none" stroke="black" cx="290" cy="-30" rx="163.112" ry="29.3315"/>
<text text-anchor="middle" x="290" y="-32.8" font-family="Times,serif" font-size="14.00">require.js</text>
<text text-anchor="middle" x="290" y="-16" font-family="Times,serif" font-size="14.00">package and dependency management</text>
</g>
<!-- underscore -->
<g id="node2" class="node"><title>underscore</title>
<ellipse fill="none" stroke="black" cx="64" cy="-126" rx="64.2475" ry="29.3315"/>
<text text-anchor="middle" x="64" y="-128.8" font-family="Times,serif" font-size="14.00">underscore.js</text>
<text text-anchor="middle" x="64" y="-112" font-family="Times,serif" font-size="14.00">functional lib</text>
</g>
<!-- require&#45;&gt;underscore -->
<g id="edge6" class="edge"><title>require&#45;&gt;underscore</title>
<path fill="none" stroke="black" d="M227.046,-57.1842C193.405,-71.1767 152.347,-88.2537 119.85,-101.771"/>
<polygon fill="black" stroke="black" points="118.38,-98.5909 110.491,-105.663 121.069,-105.054 118.38,-98.5909"/>
</g>
<!-- moment -->
<g id="node3" class="node"><title>moment</title>
<ellipse fill="none" stroke="black" cx="331" cy="-126" rx="52.6715" ry="29.3315"/>
<text text-anchor="middle" x="331" y="-128.8" font-family="Times,serif" font-size="14.00">moment.js</text>
<text text-anchor="middle" x="331" y="-112" font-family="Times,serif" font-size="14.00">date lib</text>
</g>
<!-- require&#45;&gt;moment -->
<g id="edge4" class="edge"><title>require&#45;&gt;moment</title>
<path fill="none" stroke="black" d="M302.413,-59.4582C306.337,-68.4553 310.732,-78.5319 314.877,-88.0345"/>
<polygon fill="black" stroke="black" points="311.705,-89.5178 318.911,-97.2845 318.121,-86.7192 311.705,-89.5178"/>
</g>
<!-- jquery -->
<g id="node4" class="node"><title>jquery</title>
<ellipse fill="none" stroke="black" cx="184" cy="-126" rx="37.7055" ry="18"/>
<text text-anchor="middle" x="184" y="-120.4" font-family="Times,serif" font-size="14.00">jQuery</text>
</g>
<!-- require&#45;&gt;jquery -->
<g id="edge8" class="edge"><title>require&#45;&gt;jquery</title>
<path fill="none" stroke="black" d="M258.483,-58.9486C242.624,-73.0126 223.675,-89.8163 208.859,-102.955"/>
<polygon fill="black" stroke="black" points="206.258,-100.583 201.099,-109.837 210.903,-105.821 206.258,-100.583"/>
</g>
<!-- d3 -->
<g id="node5" class="node"><title>d3</title>
<ellipse fill="none" stroke="black" cx="278" cy="-222" rx="65.5035" ry="29.3315"/>
<text text-anchor="middle" x="278" y="-224.8" font-family="Times,serif" font-size="14.00">d3.js</text>
<text text-anchor="middle" x="278" y="-208" font-family="Times,serif" font-size="14.00">visualizations</text>
</g>
<!-- require&#45;&gt;d3 -->
<g id="edge10" class="edge"><title>require&#45;&gt;d3</title>
<path fill="none" stroke="black" d="M278.611,-59.6484C274.745,-70.8049 270.919,-83.8168 269,-96 264.467,-124.773 267.137,-157.637 270.715,-182.444"/>
<polygon fill="black" stroke="black" points="267.291,-183.204 272.286,-192.547 274.208,-182.128 267.291,-183.204"/>
</g>
<!-- templating -->
<g id="node7" class="node"><title>templating</title>
<ellipse fill="none" stroke="black" cx="513" cy="-222" rx="52.1762" ry="18"/>
<text text-anchor="middle" x="513" y="-216.4" font-family="Times,serif" font-size="14.00">templating</text>
</g>
<!-- require&#45;&gt;templating -->
<g id="edge2" class="edge"><title>require&#45;&gt;templating</title>
<path fill="none" stroke="black" d="M352.437,-57.3501C373.187,-67.7158 395.657,-80.8031 414,-96 449.049,-125.038 479.913,-168.337 497.511,-195.601"/>
<polygon fill="black" stroke="black" points="494.646,-197.618 502.957,-204.188 500.557,-193.869 494.646,-197.618"/>
</g>
<!-- logging -->
<g id="node13" class="node"><title>logging</title>
<ellipse fill="none" stroke="black" cx="402" cy="-222" rx="40.5898" ry="18"/>
<text text-anchor="middle" x="402" y="-216.4" font-family="Times,serif" font-size="14.00">logging</text>
</g>
<!-- require&#45;&gt;logging -->
<g id="edge12" class="edge"><title>require&#45;&gt;logging</title>
<path fill="none" stroke="black" d="M351.021,-57.2851C366.93,-67.108 382.311,-79.8964 392,-96 409.855,-125.676 409.381,-166.739 406.463,-193.578"/>
<polygon fill="black" stroke="black" points="402.953,-193.431 405.159,-203.794 409.897,-194.318 402.953,-193.431"/>
</g>
<!-- backbone -->
<g id="node16" class="node"><title>backbone</title>
<ellipse fill="none" stroke="black" cx="60" cy="-222" rx="58.1442" ry="29.3315"/>
<text text-anchor="middle" x="60" y="-224.8" font-family="Times,serif" font-size="14.00">backbone.js</text>
<text text-anchor="middle" x="60" y="-208" font-family="Times,serif" font-size="14.00">MV*</text>
</g>
<!-- underscore&#45;&gt;backbone -->
<g id="edge36" class="edge"><title>underscore&#45;&gt;backbone</title>
<path fill="none" stroke="black" d="M62.789,-155.458C62.432,-163.847 62.0351,-173.175 61.6553,-182.101"/>
<polygon fill="black" stroke="black" points="58.1491,-182.174 61.2207,-192.314 65.1428,-182.472 58.1491,-182.174"/>
</g>
<!-- plugins -->
<g id="node21" class="node"><title>plugins</title>
<ellipse fill="none" stroke="black" cx="278" cy="-306" rx="39.449" ry="18"/>
<text text-anchor="middle" x="278" y="-300.4" font-family="Times,serif" font-size="14.00">plugins</text>
</g>
<!-- underscore&#45;&gt;plugins -->
<g id="edge38" class="edge"><title>underscore&#45;&gt;plugins</title>
<path fill="none" stroke="black" d="M89.6649,-153.038C101.183,-164.837 114.878,-179.022 127,-192 151.489,-218.219 152.858,-229.749 181,-252 199.415,-266.56 222.38,-279.307 241.342,-288.65"/>
<polygon fill="black" stroke="black" points="240.04,-291.907 250.569,-293.085 243.073,-285.598 240.04,-291.907"/>
</g>
<!-- moment&#45;&gt;d3 -->
<g id="edge14" class="edge"><title>moment&#45;&gt;d3</title>
<path fill="none" stroke="black" d="M315.67,-154.189C310.38,-163.571 304.363,-174.242 298.715,-184.26"/>
<polygon fill="black" stroke="black" points="295.526,-182.79 293.663,-193.22 301.623,-186.228 295.526,-182.79"/>
</g>
<!-- moment&#45;&gt;logging -->
<g id="edge16" class="edge"><title>moment&#45;&gt;logging</title>
<path fill="none" stroke="black" d="M350.966,-153.434C361.195,-166.976 373.566,-183.355 383.566,-196.595"/>
<polygon fill="black" stroke="black" points="380.929,-198.911 389.749,-204.781 386.515,-194.692 380.929,-198.911"/>
</g>
<!-- jquery&#45;&gt;backbone -->
<g id="edge24" class="edge"><title>jquery&#45;&gt;backbone</title>
<path fill="none" stroke="black" d="M164.897,-141.481C147.548,-154.633 121.409,-174.448 99.5651,-191.007"/>
<polygon fill="black" stroke="black" points="97.2854,-188.343 91.4307,-197.174 101.514,-193.922 97.2854,-188.343"/>
</g>
<!-- jquery&#45;&gt;plugins -->
<g id="edge22" class="edge"><title>jquery&#45;&gt;plugins</title>
<path fill="none" stroke="black" d="M182.561,-144.196C181.27,-169.706 182.124,-218.196 203,-252 212.296,-267.054 227.626,-279.015 242.011,-287.737"/>
<polygon fill="black" stroke="black" points="240.364,-290.827 250.783,-292.747 243.836,-284.748 240.364,-290.827"/>
</g>
<!-- d3&#45;&gt;plugins -->
<g id="edge40" class="edge"><title>d3&#45;&gt;plugins</title>
<path fill="none" stroke="black" d="M278,-251.68C278,-260.123 278,-269.334 278,-277.689"/>
<polygon fill="black" stroke="black" points="274.5,-277.691 278,-287.691 281.5,-277.691 274.5,-277.691"/>
</g>
<!-- templating&#45;&gt;plugins -->
<g id="edge34" class="edge"><title>templating&#45;&gt;plugins</title>
<path fill="none" stroke="black" d="M484.656,-237.279C474.214,-242.266 462.201,-247.689 451,-252 407.641,-268.688 356.638,-283.783 321.296,-293.557"/>
<polygon fill="black" stroke="black" points="320.031,-290.274 311.311,-296.292 321.88,-297.026 320.031,-290.274"/>
</g>
<!-- views -->
<g id="node27" class="node"><title>views</title>
<ellipse fill="none" stroke="black" cx="216" cy="-378" rx="33.6326" ry="18"/>
<text text-anchor="middle" x="216" y="-372.4" font-family="Times,serif" font-size="14.00">views</text>
</g>
<!-- templating&#45;&gt;views -->
<g id="edge32" class="edge"><title>templating&#45;&gt;views</title>
<path fill="none" stroke="black" d="M486.879,-237.603C450.914,-257.596 384.001,-294.384 326,-324 300.673,-336.932 271.685,-350.865 249.826,-361.198"/>
<polygon fill="black" stroke="black" points="248.179,-358.104 240.626,-365.534 251.164,-364.437 248.179,-358.104"/>
</g>
<!-- data -->
<g id="node19" class="node"><title>data</title>
<ellipse fill="none" stroke="black" cx="401" cy="-378" rx="27.2414" ry="18"/>
<text text-anchor="middle" x="401" y="-372.4" font-family="Times,serif" font-size="14.00">data</text>
</g>
<!-- logging&#45;&gt;data -->
<g id="edge18" class="edge"><title>logging&#45;&gt;data</title>
<path fill="none" stroke="black" d="M401.889,-240.069C401.717,-266.549 401.385,-317.776 401.178,-349.514"/>
<polygon fill="black" stroke="black" points="397.676,-349.832 401.111,-359.854 404.676,-349.877 397.676,-349.832"/>
</g>
<!-- logging&#45;&gt;plugins -->
<g id="edge20" class="edge"><title>logging&#45;&gt;plugins</title>
<path fill="none" stroke="black" d="M380.401,-237.283C360.309,-250.57 330.19,-270.487 307.812,-285.285"/>
<polygon fill="black" stroke="black" points="305.762,-282.445 299.352,-290.88 309.623,-288.284 305.762,-282.445"/>
</g>
<!-- models -->
<g id="node25" class="node"><title>models</title>
<ellipse fill="none" stroke="black" cx="81" cy="-306" rx="38.8646" ry="18"/>
<text text-anchor="middle" x="81" y="-300.4" font-family="Times,serif" font-size="14.00">models</text>
</g>
<!-- backbone&#45;&gt;models -->
<g id="edge26" class="edge"><title>backbone&#45;&gt;models</title>
<path fill="none" stroke="black" d="M67.227,-251.22C69.4538,-259.915 71.8988,-269.462 74.1028,-278.068"/>
<polygon fill="black" stroke="black" points="70.7693,-279.159 76.6408,-287.978 77.5504,-277.423 70.7693,-279.159"/>
</g>
<!-- backbone&#45;&gt;views -->
<g id="edge28" class="edge"><title>backbone&#45;&gt;views</title>
<path fill="none" stroke="black" d="M86.974,-248.451C99.5256,-260.378 114.608,-274.832 128,-288 150.776,-310.395 176.411,-336.416 194.112,-354.515"/>
<polygon fill="black" stroke="black" points="191.69,-357.044 201.181,-361.753 196.698,-352.154 191.69,-357.044"/>
</g>
<!-- storage -->
<g id="node17" class="node"><title>storage</title>
<ellipse fill="none" stroke="black" cx="400" cy="-450" rx="62.5747" ry="18"/>
<text text-anchor="middle" x="400" y="-444.4" font-family="Times,serif" font-size="14.00">client storage</text>
</g>
<!-- aura -->
<g id="node36" class="node"><title>aura</title>
<ellipse fill="none" stroke="black" cx="339" cy="-534" rx="113.36" ry="29.3315"/>
<text text-anchor="middle" x="339" y="-536.8" font-family="Times,serif" font-size="14.00">aura.js</text>
<text text-anchor="middle" x="339" y="-520" font-family="Times,serif" font-size="14.00">mediator, façade, pub/sub</text>
</g>
<!-- storage&#45;&gt;aura -->
<g id="edge46" class="edge"><title>storage&#45;&gt;aura</title>
<path fill="none" stroke="black" d="M387.361,-467.99C381.145,-476.346 373.4,-486.757 365.944,-496.781"/>
<polygon fill="black" stroke="black" points="362.948,-494.944 359.788,-505.056 368.564,-499.122 362.948,-494.944"/>
</g>
<!-- data&#45;&gt;storage -->
<g id="edge44" class="edge"><title>data&#45;&gt;storage</title>
<path fill="none" stroke="black" d="M400.753,-396.303C400.643,-404.017 400.51,-413.288 400.387,-421.888"/>
<polygon fill="black" stroke="black" points="396.888,-421.847 400.244,-431.896 403.887,-421.947 396.888,-421.847"/>
</g>
<!-- plugins&#45;&gt;views -->
<g id="edge42" class="edge"><title>plugins&#45;&gt;views</title>
<path fill="none" stroke="black" d="M263.931,-322.884C255.925,-331.924 245.745,-343.417 236.828,-353.485"/>
<polygon fill="black" stroke="black" points="234.023,-351.372 230.013,-361.179 239.264,-356.014 234.023,-351.372"/>
</g>
<!-- widgets -->
<g id="node39" class="node"><title>widgets</title>
<ellipse fill="none" stroke="black" cx="278" cy="-450" rx="41.1556" ry="18"/>
<text text-anchor="middle" x="278" y="-444.4" font-family="Times,serif" font-size="14.00">widgets</text>
</g>
<!-- plugins&#45;&gt;widgets -->
<g id="edge48" class="edge"><title>plugins&#45;&gt;widgets</title>
<path fill="none" stroke="black" d="M278,-324.129C278,-348.33 278,-392.789 278,-421.607"/>
<polygon fill="black" stroke="black" points="274.5,-421.811 278,-431.811 281.5,-421.811 274.5,-421.811"/>
</g>
<!-- models&#45;&gt;views -->
<g id="edge30" class="edge"><title>models&#45;&gt;views</title>
<path fill="none" stroke="black" d="M105.761,-319.839C127.668,-331.198 159.778,-347.848 183.699,-360.251"/>
<polygon fill="black" stroke="black" points="182.261,-363.448 192.749,-364.944 185.483,-357.234 182.261,-363.448"/>
</g>
<!-- views&#45;&gt;widgets -->
<g id="edge50" class="edge"><title>views&#45;&gt;widgets</title>
<path fill="none" stroke="black" d="M229.76,-394.535C237.754,-403.561 247.992,-415.12 256.978,-425.265"/>
<polygon fill="black" stroke="black" points="254.598,-427.858 263.849,-433.023 259.838,-423.216 254.598,-427.858"/>
</g>
<!-- stack -->
<g id="node42" class="node"><title>stack</title>
<ellipse fill="none" stroke="black" cx="339" cy="-618" rx="105.374" ry="18"/>
<text text-anchor="middle" x="339" y="-612.4" font-family="Times,serif" font-size="14.00">Serious Front End Stack</text>
</g>
<!-- aura&#45;&gt;stack -->
<g id="edge54" class="edge"><title>aura&#45;&gt;stack</title>
<path fill="none" stroke="black" d="M339,-563.68C339,-572.123 339,-581.334 339,-589.689"/>
<polygon fill="black" stroke="black" points="335.5,-589.691 339,-599.691 342.5,-589.691 335.5,-589.691"/>
</g>
<!-- widgets&#45;&gt;aura -->
<g id="edge52" class="edge"><title>widgets&#45;&gt;aura</title>
<path fill="none" stroke="black" d="M296.51,-475.883C301.39,-482.443 306.758,-489.658 311.986,-496.686"/>
<polygon fill="black" stroke="black" points="299.121,-473.528 290.344,-467.594 293.505,-477.706 299.121,-473.528"/>
<polygon fill="black" stroke="black" points="309.246,-498.867 318.023,-504.802 314.863,-494.689 309.246,-498.867"/>
</g>
<!-- app -->
<g id="node44" class="node"><title>app</title>
<ellipse fill="none" stroke="black" cx="204" cy="-690" rx="52.3936" ry="18"/>
<text text-anchor="middle" x="204" y="-684.4" font-family="Times,serif" font-size="14.00">Your Apps</text>
</g>
<!-- stack&#45;&gt;app -->
<g id="edge56" class="edge"><title>stack&#45;&gt;app</title>
<path fill="none" stroke="black" d="M307.689,-635.235C287.741,-645.579 261.806,-659.027 240.864,-669.885"/>
<polygon fill="black" stroke="black" points="239.198,-666.807 231.931,-674.517 242.42,-673.021 239.198,-666.807"/>
</g>
<!-- ux -->
<g id="node45" class="node"><title>ux</title>
<ellipse fill="none" stroke="black" cx="301" cy="-690" rx="27" ry="18"/>
<text text-anchor="middle" x="301" y="-684.4" font-family="Times,serif" font-size="14.00">UX</text>
</g>
<!-- stack&#45;&gt;ux -->
<g id="edge58" class="edge"><title>stack&#45;&gt;ux</title>
<path fill="none" stroke="black" d="M329.801,-635.945C325.254,-644.321 319.676,-654.596 314.644,-663.866"/>
<polygon fill="black" stroke="black" points="311.547,-662.235 309.852,-672.693 317.699,-665.574 311.547,-662.235"/>
</g>
<!-- style -->
<g id="node46" class="node"><title>style</title>
<ellipse fill="none" stroke="black" cx="377" cy="-690" rx="30.7763" ry="18"/>
<text text-anchor="middle" x="377" y="-684.4" font-family="Times,serif" font-size="14.00">Style</text>
</g>
<!-- stack&#45;&gt;style -->
<g id="edge60" class="edge"><title>stack&#45;&gt;style</title>
<path fill="none" stroke="black" d="M348.199,-635.945C352.746,-644.321 358.324,-654.596 363.356,-663.866"/>
<polygon fill="black" stroke="black" points="360.301,-665.574 368.148,-672.693 366.453,-662.235 360.301,-665.574"/>
</g>
<!-- problem -->
<g id="node47" class="node"><title>problem</title>
<ellipse fill="none" stroke="black" cx="505" cy="-690" rx="78.761" ry="18"/>
<text text-anchor="middle" x="505" y="-684.4" font-family="Times,serif" font-size="14.00">Solves a Problem</text>
</g>
<!-- stack&#45;&gt;problem -->
<g id="edge62" class="edge"><title>stack&#45;&gt;problem</title>
<path fill="none" stroke="black" d="M376.668,-634.884C401.375,-645.303 433.812,-658.981 459.893,-669.979"/>
<polygon fill="black" stroke="black" points="458.614,-673.238 469.188,-673.899 461.334,-666.788 458.614,-673.238"/>
</g>
<!-- awesome -->
<g id="node52" class="node"><title>awesome</title>
<ellipse fill="none" stroke="black" cx="339" cy="-762" rx="51.9684" ry="18"/>
<text text-anchor="middle" x="339" y="-756.4" font-family="Times,serif" font-size="14.00">Awesome!</text>
</g>
<!-- app&#45;&gt;awesome -->
<g id="edge64" class="edge"><title>app&#45;&gt;awesome</title>
<path fill="none" stroke="black" d="M231.645,-705.334C252.029,-715.904 279.969,-730.391 302.235,-741.937"/>
<polygon fill="black" stroke="black" points="300.903,-745.189 311.392,-746.685 304.126,-738.974 300.903,-745.189"/>
</g>
<!-- ux&#45;&gt;awesome -->
<g id="edge66" class="edge"><title>ux&#45;&gt;awesome</title>
<path fill="none" stroke="black" d="M309.813,-707.235C314.286,-715.475 319.828,-725.683 324.877,-734.984"/>
<polygon fill="black" stroke="black" points="321.857,-736.757 329.704,-743.876 328.009,-733.418 321.857,-736.757"/>
</g>
<!-- style&#45;&gt;awesome -->
<g id="edge68" class="edge"><title>style&#45;&gt;awesome</title>
<path fill="none" stroke="black" d="M368.187,-707.235C363.714,-715.475 358.172,-725.683 353.123,-734.984"/>
<polygon fill="black" stroke="black" points="349.991,-733.418 348.296,-743.876 356.143,-736.757 349.991,-733.418"/>
</g>
<!-- problem&#45;&gt;awesome -->
<g id="edge70" class="edge"><title>problem&#45;&gt;awesome</title>
<path fill="none" stroke="black" d="M468.98,-706.189C442.709,-717.267 407.073,-732.295 379.759,-743.813"/>
<polygon fill="black" stroke="black" points="378.328,-740.617 370.473,-747.728 381.048,-747.067 378.328,-740.617"/>
</g>
</g>
</svg>
