<?xml version="1.0" encoding="UTF-8" standalone="no"?>
<!DOCTYPE svg PUBLIC "-//W3C//DTD SVG 1.1//EN"
 "http://www.w3.org/Graphics/SVG/1.1/DTD/svg11.dtd">
<!-- Generated by graphviz version 2.28.0 (20121018.1659)
 -->
<!-- Title: YielbotStackso Pages: 1 -->
<svg width="497pt" height="260pt"
 viewBox="0.00 0.00 497.00 260.00" xmlns="http://www.w3.org/2000/svg" xmlns:xlink="http://www.w3.org/1999/xlink">
<g id="graph1" class="graph" transform="scale(1 1) rotate(0) translate(4 256)">
<title>YielbotStackso</title>
<polygon fill="white" stroke="white" points="-4,5 -4,-256 494,-256 494,5 -4,5"/>
<!-- require -->
<g id="node1" class="node"><title>require</title>
<ellipse fill="none" stroke="black" cx="302" cy="-30" rx="163.112" ry="29.3315"/>
<text text-anchor="middle" x="302" y="-32.8" font-family="Times,serif" font-size="14.00">RequireJS</text>
<text text-anchor="middle" x="302" y="-16" font-family="Times,serif" font-size="14.00">package and dependency management</text>
</g>
<!-- underscore -->
<g id="node2" class="node"><title>underscore</title>
<ellipse fill="none" stroke="black" cx="123" cy="-126" rx="123.403" ry="29.3315"/>
<text text-anchor="middle" x="123" y="-128.8" font-family="Times,serif" font-size="14.00">Lo&#45;Dash</text>
<text text-anchor="middle" x="123" y="-112" font-family="Times,serif" font-size="14.00">(Underscore.js replacement)</text>
</g>
<!-- require&#45;&gt;underscore -->
<g id="edge2" class="edge"><title>require&#45;&gt;underscore</title>
<path fill="none" stroke="black" d="M250.706,-57.9366C229.096,-69.285 203.827,-82.5545 181.497,-94.2811"/>
<polygon fill="black" stroke="black" points="179.677,-91.2831 172.451,-99.0312 182.932,-97.4805 179.677,-91.2831"/>
</g>
<!-- jquery -->
<g id="node3" class="node"><title>jquery</title>
<ellipse fill="none" stroke="black" cx="302" cy="-126" rx="37.7055" ry="18"/>
<text text-anchor="middle" x="302" y="-120.4" font-family="Times,serif" font-size="14.00">jQuery</text>
</g>
<!-- require&#45;&gt;jquery -->
<g id="edge4" class="edge"><title>require&#45;&gt;jquery</title>
<path fill="none" stroke="black" d="M302,-59.4582C302,-71.5387 302,-85.5656 302,-97.5358"/>
<polygon fill="black" stroke="black" points="298.5,-97.8358 302,-107.836 305.5,-97.8359 298.5,-97.8358"/>
</g>
<!-- d3 -->
<g id="node4" class="node"><title>d3</title>
<ellipse fill="none" stroke="black" cx="424" cy="-126" rx="65.5035" ry="29.3315"/>
<text text-anchor="middle" x="424" y="-128.8" font-family="Times,serif" font-size="14.00">D3.js</text>
<text text-anchor="middle" x="424" y="-112" font-family="Times,serif" font-size="14.00">visualizations</text>
</g>
<!-- require&#45;&gt;d3 -->
<g id="edge6" class="edge"><title>require&#45;&gt;d3</title>
<path fill="none" stroke="black" d="M337.944,-58.6947C352.296,-69.7526 368.887,-82.5361 383.649,-93.9102"/>
<polygon fill="black" stroke="black" points="381.579,-96.7333 391.637,-100.064 385.851,-91.1883 381.579,-96.7333"/>
</g>
<!-- plugins -->
<g id="node5" class="node"><title>plugins</title>
<ellipse fill="none" stroke="black" cx="302" cy="-222" rx="51.9485" ry="29.3315"/>
<text text-anchor="middle" x="302" y="-224.8" font-family="Times,serif" font-size="14.00">jQuery UI</text>
<text text-anchor="middle" x="302" y="-208" font-family="Times,serif" font-size="14.00">plugins</text>
</g>
<!-- underscore&#45;&gt;plugins -->
<g id="edge10" class="edge"><title>underscore&#45;&gt;plugins</title>
<path fill="none" stroke="black" d="M172.861,-153.184C198.843,-166.828 230.409,-183.405 255.829,-196.754"/>
<polygon fill="black" stroke="black" points="254.413,-199.964 264.894,-201.514 257.668,-193.766 254.413,-199.964"/>
</g>
<!-- jquery&#45;&gt;plugins -->
<g id="edge8" class="edge"><title>jquery&#45;&gt;plugins</title>
<path fill="none" stroke="black" d="M302,-144.241C302,-154.864 302,-168.932 302,-182.12"/>
<polygon fill="black" stroke="black" points="298.5,-182.426 302,-192.426 305.5,-182.426 298.5,-182.426"/>
</g>
<!-- d3&#45;&gt;plugins -->
<g id="edge12" class="edge"><title>d3&#45;&gt;plugins</title>
<path fill="none" stroke="black" d="M391.946,-151.697C376.05,-163.945 356.741,-178.823 340.094,-191.649"/>
<polygon fill="black" stroke="black" points="337.947,-188.884 332.162,-197.76 342.22,-194.429 337.947,-188.884"/>
</g>
</g>
</svg>
